<?xml version="1.0" encoding="UTF-8"?>
<svg width="64px" height="36px" viewBox="0 0 64 36" version="1.1" xmlns="http://www.w3.org/2000/svg" xmlns:xlink="http://www.w3.org/1999/xlink">
    <!-- Generator: Sketch 46.2 (44496) - http://www.bohemiancoding.com/sketch -->
    <title>Clocks</title>
    <desc>Created with Sketch.</desc>
    <defs></defs>
    <g id="Symbols" stroke="none" stroke-width="1" fill="none" fill-rule="evenodd">
        <g id="Logo" transform="translate(-79.000000, -37.000000)" fill-rule="nonzero" fill="#FFFFFF">
            <g id="weightlifting" transform="translate(79.000000, 37.000000)">
                <path d="M63.022,12.237 C62.357,11.439 61.421,10.982 60.454,10.982 L59,10.982 L59,9.808 C59,7.699 57.168,5.982 54.917,5.982 L53,5.982 L53,3.815 C53,2.795 52.565,1.8 51.808,1.084 C50.302,-0.339 47.699,-0.339 46.193,1.084 C45.435,1.801 45,2.796 45,3.816 L45,13.983 L19,13.983 L19,3.816 C19,2.796 18.566,1.801 17.808,1.085 C16.302,-0.338 13.699,-0.338 12.193,1.085 C11.435,1.801 11,2.796 11,3.816 L11,5.983 L8.85,5.983 C7.839,5.983 6.883,6.348 6.157,7.011 C5.422,7.686 5,8.628 5,9.594 L5,10.982 L3.56,10.982 C2.588,10.982 1.648,11.441 0.981,12.242 C0.349,13.002 0,14.001 0,15.054 L0,20.91 C0,21.963 0.349,22.962 0.982,23.722 C1.649,24.523 2.589,24.982 3.56,24.982 L5,24.982 L5,26.37 C5,27.336 5.422,28.278 6.159,28.955 C6.883,29.617 7.839,29.982 8.85,29.982 L11,29.982 L11,32.149 C11,33.169 11.435,34.164 12.192,34.879 C12.945,35.59 13.942,35.982 15,35.982 C16.058,35.982 17.055,35.59 17.808,34.879 C18.566,34.163 19,33.168 19,32.149 L19,21.982 L45,21.982 L45,32.149 C45,33.169 45.435,34.164 46.192,34.879 C46.945,35.59 47.942,35.982 49,35.982 C50.058,35.982 51.055,35.59 51.808,34.879 C52.565,34.163 53,33.168 53,32.149 L53,29.982 L54.917,29.982 C57.168,29.982 59,28.266 59,26.156 L59,24.982 L60.454,24.982 C61.421,24.982 62.357,24.524 63.023,23.727 C63.653,22.97 64.001,21.976 64.001,20.927 L64.001,15.038 C64,13.989 63.653,12.994 63.022,12.237 Z M3.56,22.982 C3.179,22.982 2.809,22.79 2.519,22.442 C2.189,22.047 2,21.488 2,20.91 L2,15.054 C2,14.476 2.189,13.918 2.519,13.522 C2.809,13.174 3.179,12.982 3.56,12.982 L5,12.982 L5,22.982 L3.56,22.982 Z M8.85,27.982 C8.347,27.982 7.858,27.799 7.511,27.481 C7.181,27.178 7,26.784 7,26.37 L7,23.982 L7,11.982 L7,9.594 C7,9.18 7.181,8.785 7.509,8.484 C7.859,8.165 8.347,7.982 8.85,7.982 L11,7.982 L11,27.982 L8.85,27.982 Z M17,32.149 C17,32.628 16.799,33.081 16.435,33.425 C15.685,34.133 14.316,34.133 13.566,33.425 C13.201,33.081 13,32.627 13,32.149 L13,28.982 L13,6.982 L13,3.815 C13,3.336 13.201,2.883 13.565,2.539 C13.94,2.185 14.463,1.982 15,1.982 C15.537,1.982 16.06,2.185 16.435,2.539 C16.799,2.883 17,3.337 17,3.816 L17,14.983 L17,20.983 L17,32.149 Z M19,19.982 L19,15.982 L45,15.982 L45,19.982 L19,19.982 Z M51,32.149 C51,32.628 50.799,33.081 50.435,33.425 C49.685,34.133 48.316,34.133 47.566,33.425 C47.201,33.081 47,32.627 47,32.149 L47,20.982 L47,14.982 L47,3.816 C47,3.337 47.201,2.884 47.565,2.54 C47.94,2.186 48.463,1.983 49,1.983 C49.537,1.983 50.06,2.186 50.435,2.54 C50.799,2.883 51,3.337 51,3.816 L51,6.983 L51,28.983 L51,32.149 Z M57,26.156 C57,27.163 56.066,27.982 54.917,27.982 L53,27.982 L53,7.982 L54.917,7.982 C56.065,7.982 57,8.801 57,9.808 L57,11.982 L57,23.982 L57,26.156 Z M62,20.926 C62,21.5 61.812,22.053 61.486,22.446 C61.198,22.792 60.831,22.982 60.454,22.982 L59,22.982 L59,12.982 L60.454,12.982 C60.831,12.982 61.198,13.172 61.486,13.518 C61.813,13.91 62,14.464 62,15.038 L62,20.926 Z" id="Clocks"></path>
            </g>
        </g>
    </g>
</svg>